<svg xmlns="http://www.w3.org/2000/svg" viewBox="0 0 90.07 127.01"><defs><style>.cls-1{fill:#fff;}</style></defs><title>logo_web</title><g id="Layer_2" data-name="Layer 2"><g id="Layer_1-2" data-name="Layer 1"><path class="cls-1" d="M45.4,48.23c8.4,0,16.79.08,25.18,0,2.14,0,2.63.56,2.61,2.64-.1,12.93,0,25.86-.06,38.79,0,5.7-1.66,7.91-7.18,8.93-2.05.38-1.9,1.36-1.9,2.73q0,9.36,0,18.71c0,2.94-1,5.47-3.91,6.56A5.9,5.9,0,0,1,53.31,125a7,7,0,0,1-1.51-5.09c0-6.23-.08-12.47,0-18.71,0-2-.58-2.6-2.48-2.42-3.35.33-7.71-1.41-9.76.72-1.61,1.68-.48,6-.51,9.17,0,3.85,0,7.71,0,11.57-.08,4.26-2.33,6.73-6,6.76s-6.11-2.32-6.21-6.56c-.16-6.35-.1-12.7,0-19,0-1.7-.23-2.45-2.2-2.81-5-.9-6.88-3.29-6.9-8.51-.06-13.15,0-26.31-.07-39.47,0-2,.72-2.38,2.53-2.36C28.61,48.28,37,48.23,45.4,48.23Z"/><path class="cls-1" d="M0,65.45C0,61.7,0,58,.07,54.21c.09-3.4,1.91-5.42,5-5.86a5.62,5.62,0,0,1,6.58,4.46,19.41,19.41,0,0,1,.44,4.71c0,6.13.13,12.26,0,18.38-.11,4.25-2.56,6.66-6.18,6.6S.09,80.05,0,75.66C0,72.26,0,68.85,0,65.45Z"/><path class="cls-1" d="M90.06,65.65c0,3.74,0,7.49,0,11.23a5.34,5.34,0,0,1-5.51,5.59c-3.22.11-6-2-6-5.1-.14-7.94-.16-15.88,0-23.82.07-3.34,2.86-5.46,6.23-5.25s5.29,2.3,5.33,5.78C90.1,57.93,90.06,61.79,90.06,65.65Z"/><path class="cls-1" d="M68,18.43a11,11,0,0,0,.8-2.23,3.21,3.21,0,0,1,2.21-2.28c4.08-1.75,5.8-5.75,4.23-9.39a7.46,7.46,0,0,0-9.6-4c-3.79,1.57-5.41,5.81-3.79,10,.4,1,1,1.86.44,3.15a70.44,70.44,0,0,0-2.8,7.64c-.37,1.19-.84,1.42-1.7,1.07l-.13-.05a3.59,3.59,0,0,1-.34-.17c-8.24-4.4-16.52-4.11-24.76-.05-1.23.6-2,.81-2.45-.79-1.11-4.15-4-7.83-1.76-12.73,1.46-3.2-1.1-6.93-4.4-8.08a7.56,7.56,0,0,0-9.25,3.56c-1.6,3.1-.67,7.81,2.56,9.18,3,1.29,3.71,3.62,4.61,6.13.65,1.81,1.2,3.67,2,5.4,1,2.08.7,3.6-.76,5.49a20.85,20.85,0,0,0-4.76,13H72.12c-.37-2.74-.65-5.66-1.88-7.93a22.25,22.25,0,0,0-4.34-7C65.18,25.06,66.39,21.81,68,18.43ZM55.24,38.76c-2.23-.21-3.55-1.29-3.61-3.61a3.29,3.29,0,0,1,3.44-3.71c2.21,0,3.82,1.12,3.76,3.74C58.77,37.58,57.37,38.51,55.24,38.76ZM35,38.75c-1.91-.16-3.39-1-3.53-3.42-.16-2.58,1.4-3.83,3.62-3.91A3.36,3.36,0,0,1,38.74,35C38.74,37.12,37.61,38.61,35,38.75Z"/></g></g></svg>